PathFileType	4	(X/Y/Z)	Walk3.trc
DataRate	CameraRate	NumFrames	NumMarkers	Units	OrigDataRate	OrigDataStartFrame	OrigNumFrames
200.000000	200.000000	6	60	mm	200.000000	277	567
Frame#	Times		LFHD		RFHD		CLAV		STRN		LASI		RASI		RACR1		RUA1		RElbow		RFA1		RWRR		RWRU		RCAR		LACR1		LUA1		LElbow		LFA1		LWRR		LWRU		LCAR		RTH3		RTH4		RMFC		RTB1		RTB2		RTB4		LTH1		LTH3		LLFC		LMFC		LTB1		LTB2		LTB4		LMT1		RTB3		LTB3		RMMAL		RMT1		RTH2		LTH4		LTH2		RToe		RElbowM		RLFC		RBHD		LToe		RTH1		RCAL		C7		RBack		RLMAL		RPSI		LMT5		T10		LLMAL		LPSI		LMMAL		LBHD		LCAL		LElbowM
			X1	Y1	Z1	X2	Y2	Z2	X3	Y3	Z3	X4	Y4	Z4	X5	Y5	Z5	X6	Y6	Z6	X7	Y7	Z7	X8	Y8	Z8	X9	Y9	Z9	X10	Y10	Z10	X11	Y11	Z11	X12	Y12	Z12	X13	Y13	Z13	X14	Y14	Z14	X15	Y15	Z15	X16	Y16	Z16	X17	Y17	Z17	X18	Y18	Z18	X19	Y19	Z19	X20	Y20	Z20	X21	Y21	Z21	X22	Y22	Z22	X23	Y23	Z23	X24	Y24	Z24	X25	Y25	Z25	X26	Y26	Z26	X27	Y27	Z27	X28	Y28	Z28	X29	Y29	Z29	X30	Y30	Z30	X31	Y31	Z31	X32	Y32	Z32	X33	Y33	Z33	X34	Y34	Z34	X35	Y35	Z35	X36	Y36	Z36	X37	Y37	Z37	X38	Y38	Z38	X39	Y39	Z39	X40	Y40	Z40	X41	Y41	Z41	X42	Y42	Z42	X43	Y43	Z43	X44	Y44	Z44	X45	Y45	Z45	X46	Y46	Z46	X47	Y47	Z47	X48	Y48	Z48	X49	Y49	Z49	X50	Y50	Z50	X51	Y51	Z51	X52	Y52	Z52	X53	Y53	Z53	X54	Y54	Z54	X55	Y55	Z55	X56	Y56	Z56	X57	Y57	Z57	X58	Y58	Z58	X59	Y59	Z59	X60	Y60	Z60

277	1.385	-335.35	1671	-7.3123	-327.19	1652	-104.95	-317.85	1402.5	-15.337	-250.33	1245	0.43686	-348.26	985.83	-178.04	-375.25	985.23	178.68	-441.57	1496.7	144.16	-450.05	1338.7	274.63	-418.06	1199.3	336.01	-348.47	1064.1	349.75	-304.42	954	278.57	-303.46	959.68	360.06	-253.95	884.97	324.73	-424.36	1453.7	-204.41	-474.45	1280.6	-281.44	-511.53	1119	-321.65	-500.95	978.72	-330.62	-450.02	854.51	-274.53	-504.75	838.81	-322.34	-446.15	769.7	-310.82	-445.63	592.08	213.11	-457.39	677.15	215.31	-446.44	483.54	50.735	-497.98	363.43	128.03	-587.6	330.47	172.34	-572.1	319.27	114.45	-374.82	761.21	-200.33	-333.02	598.14	-169.1	-335.47	513.23	-165.03	-320.35	512.69	-7.8757	-262.11	396.91	-95.995	-295.22	304.18	-130.52	-267.58	314.89	-75.616	-211.7	38.067	-39.893	-645.01	275.42	100.11	-280.97	230.01	-58.16	-773.83	229.96	34.43	-760.28	87.039	48.126	-400.73	686.73	205.04	-355.39	680.42	-184.26	-299.81	696.91	-167.53	-739.19	46.985	86.763	-461.61	1113.8	248.93	-469.87	489.72	206	-470.86	1562.9	-113.16	-162.18	36.614	-75.148	-470.98	762.97	217.19	-857.24	282.02	67.027	-513.64	1479.1	-30.491	-579.62	1370	93.489	-810.5	246.88	117.37	-622.36	1023.2	12.157	-275.68	25.13	-119.26	-574.48	1164.3	-17.038	-373.99	73.509	-57.885	-603.01	1032.4	-71.025	-348.13	84.12	27.55	-470.18	1595.5	30.934	-423.75	45.661	-0.32079	-570.57	1072.6	-219.98
278	1.39	-329.03	1672.2	-7.1039	-321.05	1653.3	-104.77	-311.61	1403.8	-15.366	-244.08	1246.1	0.18744	-342.48	986.84	-178.33	-368.75	986.6	179.02	-435.28	1497.6	144.4	-444.46	1339.6	274.64	-412.78	1199.8	336	-344.3	1063.9	349.89	-301.28	953.18	278.95	-300.32	959.05	360.42	-251.64	883.69	325.31	-418.25	1454.8	-204.37	-467.24	1281.4	-281.53	-502.71	1119.3	-321.86	-490.63	979.11	-330.48	-438.25	855.66	-274.23	-492.82	839.18	-321.94	-433.12	771.02	-310.47	-433.28	594	214.33	-446.21	678.92	216.28	-433.34	485.31	52.155	-483.59	365.39	129.49	-572.94	331.95	173.98	-557.53	320.94	116.01	-370.42	761.67	-200.22	-330.04	598.24	-168.97	-333.2	513.29	-164.86	-318.43	512.51	-7.7524	-260.56	396.5	-95.86	-294.03	303.91	-130.44	-266.4	314.51	-75.5	-211.61	38.052	-39.885	-630.25	276.77	101.77	-280.16	229.68	-58.059	-758.92	230.54	36.418	-743.52	88.021	51.541	-389.7	689.25	205.9	-351.69	680.8	-184.16	-295.96	696.72	-167.35	-721.98	48.784	90.267	-456.81	1114.6	248.85	-456.14	491.69	207.52	-464.79	1564.3	-112.87	-161.92	36.165	-75.194	-460.99	764.53	217.91	-843	281.83	68.847	-507.32	1480.3	-30.29	-573.42	1371	93.348	-795.61	247.47	119.33	-615.9	1024.3	12.576	-275.66	25.114	-119.29	-568.09	1165.6	-16.944	-373.8	73.564	-57.815	-596.95	1033.7	-70.603	-347.96	84.078	27.621	-463.85	1596.7	31.24	-423.69	45.787	-0.26175	-561.6	1072.4	-220.18
279	1.395	-322.69	1673.4	-6.8642	-314.92	1654.6	-104.56	-305.39	1405	-15.379	-237.83	1247.3	-0.054366	-336.7	987.85	-178.58	-362.26	987.98	179.44	-429.01	1498.6	144.67	-438.88	1340.4	274.65	-407.52	1200.3	335.99	-340.19	1063.6	350.04	-298.2	952.33	279.37	-297.26	958.37	360.82	-249.37	882.4	325.92	-412.18	1456	-204.32	-460.05	1282.1	-281.62	-493.84	1119.6	-322.08	-480.24	979.52	-330.37	-426.43	856.85	-273.92	-480.81	839.59	-321.56	-420.05	772.36	-310.08	-421.01	596.02	215.52	-435.09	680.77	217.25	-420.3	487.11	53.561	-469.13	367.36	130.98	-558.21	333.36	175.63	-542.83	322.47	117.61	-366.06	762.12	-200.09	-327.13	598.34	-168.82	-330.99	513.34	-164.69	-316.56	512.34	-7.6234	-259.05	396.11	-95.728	-292.89	303.65	-130.35	-265.25	314.14	-75.388	-211.53	38.039	-39.884	-615.27	277.87	103.46	-279.38	229.37	-57.963	-743.68	230.67	38.36	-726.16	88.665	54.904	-378.75	691.85	206.75	-348.04	681.17	-184.06	-292.17	696.53	-167.18	-704.07	50.392	93.7	-452.05	1115.3	248.79	-442.5	493.75	209	-458.75	1565.7	-112.54	-161.67	35.722	-75.253	-451.05	766.17	218.63	-828.55	281.02	70.591	-501.01	1481.5	-30.058	-567.23	1371.9	93.229	-780.45	247.56	121.23	-609.44	1025.4	13.02	-275.65	25.098	-119.33	-561.72	1166.8	-16.842	-373.62	73.621	-57.745	-590.91	1035	-70.149	-347.79	84.042	27.692	-457.51	1598	31.593	-423.62	45.917	-0.19971	-552.59	1072.2	-220.41
280	1.4	-316.34	1674.5	-6.5963	-308.79	1655.9	-104.33	-299.18	1406.1	-15.376	-231.58	1248.4	-0.28722	-330.93	988.86	-178.8	-355.8	989.36	179.93	-422.76	1499.5	144.96	-433.29	1341.2	274.68	-402.29	1200.7	335.98	-336.15	1063.3	350.21	-295.18	951.46	279.81	-294.27	957.67	361.23	-247.14	881.12	326.57	-406.15	1457.2	-204.26	-452.87	1282.9	-281.7	-484.9	1119.9	-322.31	-469.77	979.94	-330.27	-414.58	858.08	-273.59	-468.71	840.02	-321.21	-406.95	773.73	-309.62	-408.82	598.14	216.68	-424.05	682.7	218.19	-407.33	488.94	54.947	-454.63	369.31	132.5	-543.42	334.69	177.27	-528.01	323.88	119.23	-361.75	762.54	-199.95	-324.27	598.43	-168.68	-328.84	513.4	-164.52	-314.73	512.19	-7.4875	-257.59	395.73	-95.601	-291.79	303.4	-130.27	-264.14	313.78	-75.281	-211.44	38.026	-39.888	-600.09	278.71	105.2	-278.62	229.07	-57.873	-728.12	230.35	40.262	-708.24	88.979	58.209	-367.88	694.53	207.6	-344.44	681.54	-183.95	-288.44	696.33	-167.01	-685.49	51.8	97.059	-447.35	1115.9	248.73	-428.97	495.88	210.43	-452.73	1567.2	-112.16	-161.42	35.287	-75.327	-441.16	767.88	219.35	-813.86	279.61	72.272	-494.71	1482.6	-29.798	-561.06	1372.8	93.135	-765.03	247.16	123.07	-602.98	1026.4	13.489	-275.64	25.083	-119.36	-555.35	1167.9	-16.731	-373.45	73.679	-57.675	-584.89	1036.2	-69.669	-347.62	84.014	27.763	-451.15	1599.2	31.989	-423.55	46.05	-0.13551	-543.55	1071.9	-220.68
281	1.405	-309.98	1675.6	-6.3029	-302.67	1657.2	-104.08	-292.99	1407.3	-15.357	-225.33	1249.5	-0.51054	-325.16	989.86	-178.98	-349.36	990.72	180.49	-416.52	1500.4	145.28	-427.69	1341.9	274.72	-397.1	1201.1	335.97	-332.18	1063	350.4	-292.21	950.56	280.27	-291.34	956.93	361.67	-244.95	879.86	327.25	-400.16	1458.3	-204.17	-445.71	1283.7	-281.78	-475.9	1120.2	-322.54	-459.22	980.4	-330.18	-402.69	859.34	-273.25	-456.52	840.51	-320.88	-393.81	775.14	-309.12	-396.73	600.34	217.8	-413.1	684.7	219.12	-394.43	490.8	56.309	-440.1	371.25	134.05	-528.58	335.93	178.91	-513.09	325.15	120.89	-357.49	762.95	-199.81	-321.46	598.51	-168.53	-326.74	513.45	-164.34	-312.93	512.04	-7.3446	-256.17	395.36	-95.479	-290.72	303.16	-130.18	-263.06	313.44	-75.18	-211.35	38.014	-39.897	-584.72	279.3	106.97	-277.88	228.78	-57.788	-712.26	229.6	42.13	-689.78	88.974	61.456	-357.1	697.26	208.43	-340.9	681.89	-183.84	-284.76	696.11	-166.85	-666.29	53.005	100.34	-442.69	1116.5	248.66	-415.55	498.07	211.8	-446.72	1568.6	-111.75	-161.18	34.858	-75.415	-431.35	769.63	220.06	-798.96	277.62	73.904	-488.42	1483.8	-29.513	-554.9	1373.8	93.066	-749.36	246.28	124.86	-596.54	1027.5	13.987	-275.63	25.068	-119.4	-549	1169.1	-16.614	-373.28	73.739	-57.606	-578.89	1037.5	-69.165	-347.45	83.993	27.835	-444.78	1600.4	32.426	-423.49	46.186	-0.070016	-534.47	1071.7	-220.99
282	1.41	-303.59	1676.7	-5.9859	-296.55	1658.4	-103.8	-286.8	1408.5	-15.321	-219.07	1250.6	-0.72431	-319.4	990.86	-179.13	-342.93	992.07	181.12	-410.28	1501.2	145.61	-422.08	1342.6	274.78	-391.93	1201.4	335.95	-328.28	1062.6	350.59	-289.3	949.64	280.74	-288.49	956.18	362.13	-242.81	878.6	327.95	-394.22	1459.4	-204.07	-438.56	1284.4	-281.85	-466.85	1120.6	-322.76	-448.6	980.89	-330.1	-390.75	860.65	-272.9	-444.26	841.04	-320.58	-380.63	776.57	-308.57	-384.75	602.61	218.88	-402.23	686.74	220.03	-381.61	492.7	57.643	-425.54	373.15	135.63	-513.7	337.07	180.55	-498.07	326.29	122.58	-353.27	763.35	-199.66	-318.7	598.59	-168.38	-324.7	513.5	-164.17	-311.15	511.9	-7.1948	-254.79	395	-95.362	-289.69	302.93	-130.1	-262	313.11	-75.083	-211.27	38.001	-39.912	-569.17	279.64	108.78	-277.15	228.51	-57.707	-696.11	228.42	43.969	-670.82	88.667	64.647	-346.41	700.03	209.26	-337.41	682.23	-183.73	-281.13	695.9	-166.69	-646.51	54.009	103.56	-438.07	1117.1	248.6	-402.26	500.3	213.12	-440.73	1570.1	-111.3	-160.94	34.434	-75.516	-421.6	771.43	220.77	-783.82	275.05	75.497	-482.13	1484.9	-29.208	-548.74	1374.7	93.025	-733.45	244.92	126.61	-590.1	1028.5	14.515	-275.62	25.054	-119.43	-542.65	1170.3	-16.488	-373.12	73.801	-57.536	-572.91	1038.7	-68.643	-347.28	83.98	27.907	-438.4	1601.6	32.9	-423.42	46.325	-0.00404	-525.34	1071.5	-221.32
